# File created by Blade
# Date/Time:  Thu Jan 15 17:55:17 2015
#---------------------------------------------------------
:version 1.10
:name HOM
:units
  mass 1.0
  length 1.000000
  angle deg
:documentation
     Acclaim Skeleton File
:root
   axis xyz
   order TX TY TZ RX RY RZ
   position 0.000000 0.000000 0.000000
   orientation 0 0 0
:bonedata
   begin
      id 1
      name Spine_dum
      direction 0.000000 1.000000 0.000000
      length 5.015652
      axis 0.0 0.0 0.0 xyz
   end
   begin
      id 2
      name LeftUpLeg_dum
      direction 1.000000 0.000000 0.000000
      length 4.275145
      axis 0.0 0.0 0.0 xyz
   end
   begin
      id 3
      name RightUpLeg_dum
      direction -1.000000 0.000000 0.000000
      length 4.275145
      axis 0.0 0.0 0.0 xyz
   end
   begin
      id 4
      name Spine
      direction 0.000000 1.000000 0.000000
      length 0.000000
      axis 0.0 0.0 0.0 xyz
      dof rx ry rz
   end
   begin
      id 5
      name Spine_dum1
      direction 0.000000 1.000000 0.000000
      length 15.980521
      axis 0.0 0.0 0.0 xyz
   end
   begin
      id 6
      name Spine_dum2
      direction 0.000000 1.000000 0.000000
      length 12.162712
      axis 0.0 0.0 0.0 xyz
   end
   begin
      id 7
      name Spine_dum3
      direction 0.000000 1.000000 0.000000
      length 12.162712
      axis 0.0 0.0 0.0 xyz
   end
   begin
      id 8
      name Head
      direction 0.000000 1.000000 0.000000
      length 4.527550
      axis 0.0 0.0 0.0 xyz
      dof rx ry rz
   end
   begin
      id 9
      name LeftShoulder
      direction 1.000000 0.000000 0.000000
      length 7.205867
      axis 0.0 0.0 -90.0 xyz
      dof rx ry rz
   end
   begin
      id 10
      name LeftArm
      direction 1.000000 0.000000 0.000000
      length 10.786708
      axis 0.0 0.0 -90.0 xyz
      dof rx ry rz
   end
   begin
      id 11
      name LeftForeArm
      direction 1.000000 0.000000 0.000000
      length 7.946034
      axis 0.0 0.0 -90.0 xyz
      dof rz ry rx
   end
   begin
      id 12
      name LeftHand
      direction 0.000000 0.000000 0.000000
      length 0.000000
      axis 0.0 0.0 -90.0 xyz
      dof rx ry rz
   end
   begin
      id 13
      name LeftHand_dum1
      direction 0.000000 0.000000 0.000000
      length 0.000000
      axis 0.0 0.0 -90.0 xyz
   end
   begin
      id 14
      name LeftHand_dum2
      direction 1.000000 0.000000 0.000000
      length 3.937000
      axis 0.0 0.0 -90.0 xyz
   end
   begin
      id 15
      name LeftHandThumb1
      direction 0.000000 0.000000 1.000000
      length 3.937000
      axis 0.0 0.0 -90.0 xyz
      dof rx ry rz
   end
   begin
      id 16
      name RightShoulder
      direction -1.000000 0.000000 0.000000
      length 7.205867
      axis 0.0 0.0 90.0 xyz
      dof rx ry rz
   end
   begin
      id 17
      name RightArm
      direction -1.000000 0.000000 0.000000
      length 10.786708
      axis 0.0 0.0 90.0 xyz
      dof rx ry rz
   end
   begin
      id 18
      name RightForeArm
      direction -1.000000 0.000000 0.000000
      length 7.946034
      axis 0.0 0.0 90.0 xyz
      dof rz ry rx
   end
   begin
      id 19
      name RightHand
      direction 0.000000 0.000000 0.000000
      length 0.000000
      axis 0.0 0.0 90.0 xyz
      dof rx ry rz
   end
   begin
      id 20
      name RightHand_dum1
      direction 0.000000 0.000000 0.000000
      length 0.000000
      axis 0.0 0.0 90.0 xyz
   end
   begin
      id 21
      name RightHand_dum2
      direction -1.000000 0.000000 0.000000
      length 3.937000
      axis 0.0 0.0 90.0 xyz
   end
   begin
      id 22
      name RightHandThumb1
      direction 0.000000 0.000000 1.000000
      length 3.937000
      axis 0.0 0.0 90.0 xyz
      dof rx ry rz
   end
   begin
      id 23
      name LeftUpLeg
      direction 0.000000 -1.000000 0.000000
      length 17.046659
      axis 0.0 0.0 0.0 xyz
      dof rx ry rz
   end
   begin
      id 24
      name LeftLeg
      direction 0.000000 -1.000000 0.000000
      length 17.458438
      axis 0.0 0.0 0.0 xyz
      dof rx ry rz
   end
   begin
      id 25
      name LeftFoot
      direction 0.000000 -0.258819 0.965926
      length 5.099406
      axis 15.0 0.0 0.0 xyz
      dof rx ry rz
   end
   begin
      id 26
      name LeftToeBase
      direction 0.000000 0.000000 1.000000
      length 2.952750
      axis 0.0 0.0 0.0 xyz
      dof rx ry rz
   end
   begin
      id 27
      name RightUpLeg
      direction 0.000000 -1.000000 0.000000
      length 17.046659
      axis 0.0 0.0 0.0 xyz
      dof rx ry rz
   end
   begin
      id 28
      name RightLeg
      direction 0.000000 -1.000000 0.000000
      length 17.458438
      axis 0.0 0.0 0.0 xyz
      dof rx ry rz
   end
   begin
      id 29
      name RightFoot
      direction 0.000000 -0.258819 0.965926
      length 5.099406
      axis 15.0 0.0 0.0 xyz
      dof rx ry rz
   end
   begin
      id 30
      name RightToeBase
      direction 0.000000 0.000000 1.000000
      length 2.952750
      axis 0.0 0.0 0.0 xyz
      dof rx ry rz
   end
:hierarchy
   begin
      root Spine_dum LeftUpLeg_dum RightUpLeg_dum
      Spine_dum Spine
      LeftUpLeg_dum LeftUpLeg
      RightUpLeg_dum RightUpLeg
      Spine Spine_dum1 Spine_dum2 Spine_dum3
      Spine_dum1 Head
      Spine_dum2 LeftShoulder
      Spine_dum3 RightShoulder
      LeftShoulder LeftArm
      LeftArm LeftForeArm
      LeftForeArm LeftHand
      LeftHand LeftHand_dum1 LeftHand_dum2
      LeftHand_dum1 LeftHandThumb1
      RightShoulder RightArm
      RightArm RightForeArm
      RightForeArm RightHand
      RightHand RightHand_dum1 RightHand_dum2
      RightHand_dum1 RightHandThumb1
      LeftUpLeg LeftLeg
      LeftLeg LeftFoot
      LeftFoot LeftToeBase
      RightUpLeg RightLeg
      RightLeg RightFoot
      RightFoot RightToeBase
   end

# File created by Blade
# Date/Time:  Thu Jan 15 17:55:09 2015
# Frame Rate: 120.000 fps
#------------------------------------------------------
:FULLY-SPECIFIED
:DEGREES
209
root 5.366305 35.854947 -11.071448 3.751889 -1.156297 1.864632
Spine -12.577027 -10.940586 -0.317878
Head 3.316809 6.472416 11.243825
LeftShoulder -17.616483 -9.189343 35.474736
LeftArm 79.442547 -20.808859 -14.897648
LeftForeArm -0.000000 46.781769 0.917962
LeftHand 8.142931 -0.000000 8.116897
LeftHandThumb1 -26.253704 33.147579 0.000000
RightShoulder 14.728772 50.882569 -24.421705
RightArm 62.799047 12.300796 45.867398
RightForeArm -0.000000 -57.805213 12.703422
RightHand -1.212942 -0.000000 -2.909149
RightHandThumb1 -24.326973 -32.862282 -0.000000
LeftUpLeg 1.223225 11.549608 -1.159246
LeftLeg -0.461077 -0.000000 0.000000
LeftFoot -22.257918 19.054063 -16.787090
LeftToeBase 24.744141 -0.000000 -0.000000
RightUpLeg 2.882314 -13.762090 -2.269098
RightLeg -4.061887 -0.000000 0.000000
RightFoot -20.708007 -24.369585 12.730441
RightToeBase 26.293906 -0.000000 -0.000000
210
root 5.373948 35.851106 -11.049873 3.864013 -1.075756 1.872948
Spine -12.593107 -11.033064 -0.291194
Head 3.226444 6.424559 11.159247
LeftShoulder -18.171214 -8.868051 35.531637
LeftArm 78.153173 -22.524845 -14.490872
LeftForeArm -0.000000 47.016219 0.890139
LeftHand 8.283879 -0.000000 8.348838
LeftHandThumb1 -26.253704 33.147579 0.000000
RightShoulder 13.443188 50.367335 -25.374473
RightArm 62.934550 13.758400 43.943696
RightForeArm -0.000000 -57.710182 12.655020
RightHand -1.249511 -0.000000 -3.400225
RightHandThumb1 -24.326973 -32.862282 -0.000000
LeftUpLeg 1.167528 11.476494 -1.197165
LeftLeg -0.526358 -0.000000 0.000000
LeftFoot -22.255495 19.084920 -16.706303
LeftToeBase 24.720842 -0.000000 -0.000000
RightUpLeg 2.842916 -13.828195 -2.270549
RightLeg -4.112846 -0.000000 0.000000
RightFoot -20.708293 -24.387479 12.707958
RightToeBase 26.239334 -0.000000 -0.000000
211
root 5.384373 35.847678 -11.032550 4.018678 -1.000345 1.886980
Spine -12.650136 -11.121680 -0.246003
Head 3.101845 6.359730 11.047513
LeftShoulder -18.673196 -8.704748 35.610674
LeftArm 76.656756 -24.073788 -14.033426
LeftForeArm -0.000000 47.224586 0.838447
LeftHand 8.245833 -0.000000 8.364387
LeftHandThumb1 -26.253704 33.147579 0.000000
RightShoulder 12.162782 49.977497 -26.329501
RightArm 62.844492 15.140325 42.189504
RightForeArm -0.000000 -57.975084 12.596861
RightHand -1.102661 -0.000000 -4.010659
RightHandThumb1 -24.326973 -32.862282 -0.000000
LeftUpLeg 1.052102 11.378577 -1.257065
LeftLeg -0.574035 -0.000000 0.000000
LeftFoot -22.262746 19.151961 -16.638147
LeftToeBase 24.748883 -0.000000 -0.000000
RightUpLeg 2.752055 -13.877803 -2.272383
RightLeg -4.160247 -0.000000 0.000000
RightFoot -20.723432 -24.397180 12.698613
RightToeBase 26.264106 -0.000000 -0.000000
212
root 5.394415 35.843424 -11.015169 4.152426 -0.935146 1.899784
Spine -12.668595 -11.198373 -0.203448
Head 3.040641 6.249698 10.912716
LeftShoulder -19.118807 -8.370293 35.578659
LeftArm 75.090055 -25.728235 -13.429253
LeftForeArm -0.000000 47.382520 0.591748
LeftHand 8.389449 -0.000000 9.263350
LeftHandThumb1 -26.253704 33.147579 0.000000
RightShoulder 10.858790 49.552560 -27.268939
RightArm 62.634158 16.448911 40.318579
RightForeArm 0.000000 -57.986899 12.507753
RightHand -1.280837 -0.000000 -4.334373
RightHandThumb1 -24.326973 -32.862282 -0.000000
LeftUpLeg 0.956392 11.254705 -1.309737
LeftLeg -0.612882 -0.000000 0.000000
LeftFoot -22.277083 19.233882 -16.548848
LeftToeBase 24.736844 -0.000000 -0.000000
RightUpLeg 2.678800 -13.897128 -2.277217
RightLeg -4.202741 -0.000000 0.000000
RightFoot -20.737554 -24.434459 12.665274
RightToeBase 26.281014 -0.000000 -0.000000
213
root 5.402675 35.839716 -10.995414 4.290567 -0.876250 1.900231
Spine -12.692651 -11.309986 -0.197115
Head 2.895844 6.385920 10.944886
LeftShoulder -19.586888 -8.074282 35.696892
LeftArm 73.459797 -27.263969 -12.976157
LeftForeArm 0.000000 47.529058 0.407503
LeftHand 8.282197 -0.000000 9.564801
LeftHandThumb1 -26.253704 33.147579 0.000000
RightShoulder 9.667142 49.120158 -28.099092
RightArm 62.145080 17.759367 38.473035
RightForeArm -0.000000 -58.364600 12.514531
RightHand -1.583314 -0.000000 -3.747589
RightHandThumb1 -24.326973 -32.862282 -0.000000
LeftUpLeg 0.867603 11.176045 -1.352006
LeftLeg -0.672263 -0.000000 0.000000
LeftFoot -22.294796 19.337747 -16.467435
LeftToeBase 24.708091 -0.000000 -0.000000
RightUpLeg 2.616864 -13.904403 -2.266235
RightLeg -4.268870 -0.000000 0.000000
RightFoot -20.754421 -24.470053 12.689052
RightToeBase 26.334706 -0.000000 -0.000000
214
root 5.408025 35.837478 -10.973519 4.405250 -0.805646 1.905441
Spine -12.721793 -11.441707 -0.144490
Head 2.865775 6.415028 10.838322
LeftShoulder -19.962148 -7.731256 35.710024
LeftArm 71.672719 -28.793871 -12.524243
LeftForeArm -0.000000 47.554869 0.192155
LeftHand 8.465238 -0.000000 10.366496
LeftHandThumb1 -26.253704 33.147579 0.000000
RightShoulder 8.498704 49.200529 -28.871663
RightArm 61.326931 18.567121 36.653783
RightForeArm -0.000000 -58.700031 12.476311
RightHand -1.804290 -0.000000 -3.323707
RightHandThumb1 -24.326973 -32.862282 -0.000000
LeftUpLeg 0.794863 11.061633 -1.388811
LeftLeg -0.708365 -0.000000 0.000000
LeftFoot -22.312686 19.426652 -16.415340
LeftToeBase 24.659098 -0.000000 -0.000000
RightUpLeg 2.589875 -13.899979 -2.257631
RightLeg -4.348621 -0.000000 0.000000
RightFoot -20.765797 -24.533786 12.743943
RightToeBase 26.271766 -0.000000 -0.000000
215
root 5.416932 35.834844 -10.955680 4.535934 -0.758958 1.909490
Spine -12.738713 -11.554739 -0.102476
Head 2.819400 6.460774 10.792054
LeftShoulder -20.352550 -7.522979 35.764255
LeftArm 69.680458 -30.090355 -11.770363
LeftForeArm -0.000000 47.926100 0.008361
LeftHand 8.090879 -0.000000 10.083582
LeftHandThumb1 -26.253704 33.147579 0.000000
RightShoulder 7.249630 49.010659 -29.696545
RightArm 60.515567 19.580837 34.907582
RightForeArm -0.000000 -58.820193 12.559752
RightHand -1.857177 -0.000000 -2.914390
RightHandThumb1 -24.326973 -32.862282 -0.000000
LeftUpLeg 0.697149 10.936866 -1.436370
LeftLeg -0.736806 -0.000000 0.000000
LeftFoot -22.326519 19.559000 -16.329652
LeftToeBase 24.631575 -0.000000 -0.000000
RightUpLeg 2.523409 -13.899983 -2.251574
RightLeg -4.400696 -0.000000 0.000000
RightFoot -20.783681 -24.565333 12.771487
RightToeBase 26.256015 -0.000000 -0.000000
